<?xml version="1.0" encoding="UTF-8"?>
        <svg xmlns="http://www.w3.org/2000/svg" xmlns:xlink="http://www.w3.org/1999/xlink"
             width="512" height="512" viewBox="0 -900 900 900">
<defs>

        <rect id="obstacle" width="70" height="70" fill="#84A1AE" rx="15"/>
        <style>
        .line {stroke: #84A1AE; stroke-width: 10;}
        .agent {r: 35;}
        .target {fill: none; stroke-width: 10; r: 35;}
        </style>
        
</defs>

<line class="line" x1="-50.0" x2="-50.0" y1="0" y2="-900" />
<line class="line" x1="50.0" x2="50.0" y1="0" y2="-900" />
<line class="line" x1="150.0" x2="150.0" y1="0" y2="-900" />
<line class="line" x1="250.0" x2="250.0" y1="0" y2="-900" />
<line class="line" x1="350.0" x2="350.0" y1="0" y2="-900" />
<line class="line" x1="450.0" x2="450.0" y1="0" y2="-900" />
<line class="line" x1="550.0" x2="550.0" y1="0" y2="-900" />
<line class="line" x1="650.0" x2="650.0" y1="0" y2="-900" />
<line class="line" x1="750.0" x2="750.0" y1="0" y2="-900" />
<line class="line" x1="850.0" x2="850.0" y1="0" y2="-900" />
<line class="line" x1="0" x2="900" y1="50.0" y2="50.0" />
<line class="line" x1="0" x2="900" y1="-50.0" y2="-50.0" />
<line class="line" x1="0" x2="900" y1="-150.0" y2="-150.0" />
<line class="line" x1="0" x2="900" y1="-250.0" y2="-250.0" />
<line class="line" x1="0" x2="900" y1="-350.0" y2="-350.0" />
<line class="line" x1="0" x2="900" y1="-450.0" y2="-450.0" />
<line class="line" x1="0" x2="900" y1="-550.0" y2="-550.0" />
<line class="line" x1="0" x2="900" y1="-650.0" y2="-650.0" />
<line class="line" x1="0" x2="900" y1="-750.0" y2="-750.0" />
<line class="line" x1="0" x2="900" y1="-850.0" y2="-850.0" />
<use href="#obstacle" x="65" y="-135" />
<use href="#obstacle" x="65" y="-235" />
<use href="#obstacle" x="65" y="-335" />
<use href="#obstacle" x="65" y="-435" />
<use href="#obstacle" x="65" y="-535" />
<use href="#obstacle" x="65" y="-635" />
<use href="#obstacle" x="65" y="-735" />
<use href="#obstacle" x="65" y="-835" />
<use href="#obstacle" x="165" y="-135" />
<use href="#obstacle" x="165" y="-335" />
<use href="#obstacle" x="165" y="-635" />
<use href="#obstacle" x="165" y="-835" />
<use href="#obstacle" x="265" y="-135" />
<use href="#obstacle" x="265" y="-735" />
<use href="#obstacle" x="265" y="-835" />
<use href="#obstacle" x="365" y="-135" />
<use href="#obstacle" x="365" y="-835" />
<use href="#obstacle" x="465" y="-135" />
<use href="#obstacle" x="465" y="-735" />
<use href="#obstacle" x="465" y="-835" />
<use href="#obstacle" x="565" y="-135" />
<use href="#obstacle" x="565" y="-835" />
<use href="#obstacle" x="665" y="-135" />
<use href="#obstacle" x="665" y="-235" />
<use href="#obstacle" x="665" y="-335" />
<use href="#obstacle" x="665" y="-435" />
<use href="#obstacle" x="665" y="-835" />
<use href="#obstacle" x="765" y="-135" />
<use href="#obstacle" x="765" y="-235" />
<use href="#obstacle" x="765" y="-335" />
<use href="#obstacle" x="765" y="-435" />
<use href="#obstacle" x="765" y="-535" />
<use href="#obstacle" x="765" y="-635" />
<use href="#obstacle" x="765" y="-735" />
<use href="#obstacle" x="765" y="-835" />
<circle class="agent" cx="400" cy="-300" fill="#c1433c" r="35"> <animate attributeName="cy" dur="8.25s" keyTimes="0.0;0.0294117647;0.1176470588;0.1470588235;0.1764705882;0.2058823529;0.2352941176;0.4705882353;0.5;0.5294117647;0.5588235294;0.6176470588;0.6470588235;0.6764705882;0.7058823529;0.7352941176;0.7647058824;0.7941176471;0.8823529412;0.9117647059;1.0" repeatCount="indefinite" values="-300;-300;-300;-400;-400;-500;-600;-600;-500;-600;-500;-500;-400;-500;-400;-500;-400;-300;-300;-200;-200"/>
<animate attributeName="cx" dur="8.25s" keyTimes="0.0;0.0294117647;0.0588235294;0.0882352941;0.2352941176;0.2647058824;0.3235294118;0.3529411765;0.3823529412;0.4117647059;0.4411764706;0.4705882353;0.5588235294;0.5882352941;0.6176470588;0.7941176471;0.8235294118;0.8529411765;0.8823529412;0.9117647059;0.9411764706;0.9705882353;1.0" repeatCount="indefinite" values="400;400;500;600;600;700;700;600;700;700;600;500;500;400;500;500;600;600;500;500;400;300;300"/>
<animate attributeName="visibility" dur="8.25s" keyTimes="0.0;0.0294117647;1.0" repeatCount="indefinite" values="visible;visible;visible"/> </circle>
<circle class="agent" cx="600" cy="-600" fill="#2e6f9e" r="35"> <animate attributeName="cy" dur="8.25s" keyTimes="0.0;0.0294117647;0.0588235294;0.4705882353;0.5;0.5294117647;0.5588235294;0.7352941176;0.7647058824;1.0" repeatCount="indefinite" values="-600;-600;-700;-700;-600;-500;-600;-600;-500;-500"/>
<animate attributeName="cx" dur="8.25s" keyTimes="0.0;0.0294117647;0.2352941176;0.2647058824;0.2941176471;0.3235294118;0.3529411765;0.3823529412;0.6764705882;0.7058823529;0.7352941176;0.7647058824;0.7941176471;0.8235294118;0.8529411765;0.8823529412;0.9117647059;0.9411764706;0.9705882353;1.0" repeatCount="indefinite" values="600;600;600;700;700;600;600;700;700;600;500;500;600;500;600;500;600;600;500;500"/>
<animate attributeName="visibility" dur="8.25s" keyTimes="0.0;0.0294117647;1.0" repeatCount="indefinite" values="visible;visible;visible"/> </circle>
<circle class="target" cx="300" cy="-400" r="35" stroke="#c1433c"> <animate attributeName="visibility" dur="8.25s" keyTimes="0.0;0.0294117647;1.0" repeatCount="indefinite" values="visible;visible;visible"/> </circle>
<circle class="target" cx="400" cy="-700" r="35" stroke="#2e6f9e"> <animate attributeName="visibility" dur="8.25s" keyTimes="0.0;0.0294117647;1.0" repeatCount="indefinite" values="visible;visible;visible"/> </circle>
</svg>